# xmcd
#
# Track frame offsets:
#	150
#	9922
#	21796
#	32624
#	42271
#	53297
#	63694
#	73331
#	83389
#	95851
#	107319
#	119323
#	131359
#	142109
#	153343
#	164291
#	173522
#	185719
#	194497
#	205096
#	216929
#	227487
#	238107
#	252229
#	261533
#
# Disc length: 3674 seconds
#
# Revision: 0
# Processed by: cddbd v1.5.2PL0 Copyright (c) Steve Scherf et al.
# Submitted via: audiograbber 1.83.01
#
DISCID=590e5819
DTITLE=Various Artist - Slow Smooth And Sexy Volume 4
DYEAR=1900
DGENRE=
TTITLE0=Freddie And Thiefs - Ask Me
TTITLE1=Originals - At Times Like This
TTITLE2=Planets - Be Sure
TTITLE3=Swans - Believe In Me
TTITLE4=Rosemarie and Bo - Close Your Eyes
TTITLE5=Endorsers - Crying
TTITLE6=Catalinas - Give Me Your Love
TTITLE7=United Four - Go On
TTITLE8=Dantes - How Many Times
TTITLE9=Enchanters - I Need Your Love
TTITLE10=Chorals - In My Dreams
TTITLE11=Freddie and Thiefs - Is It All Over
TTITLE12=Timetones - My Love
TTITLE13=Spinners - My Love And Your Love
TTITLE14=Darts - On My Mind
TTITLE15=Hollywood Flames - Peggy
TTITLE16=Styles - School Bells To Chapel Bells
TTITLE17=Pretenders - Smile
TTITLE18=Hi Tensions - The Clock
TTITLE19=Citations - The Girl Next Door
TTITLE20=Chessmen - The Keeper Of My Love
TTITLE21=Holidays - The Stars Will Remember
TTITLE22=Calvays - The Wind
TTITLE23=Corvells - We Made A Vow
TTITLE24=Castletones - We Met At A Dance
EXTD=
EXTT0=
EXTT1=
EXTT2=
EXTT3=
EXTT4=
EXTT5=
EXTT6=
EXTT7=
EXTT8=
EXTT9=
EXTT10=
EXTT11=
EXTT12=
EXTT13=
EXTT14=
EXTT15=
EXTT16=
EXTT17=
EXTT18=
EXTT19=
EXTT20=
EXTT21=
EXTT22=
EXTT23=
EXTT24=
PLAYORDER=
